<svg xmlns="http://www.w3.org/2000/svg" viewBox="0 0 420 200" role="img" aria-label="Jenerat÷r ana panel _emas1">
  <defs>
    <linearGradient id="panelBg" x1="0%" y1="0%" x2="0%" y2="100%"><stop offset="0%" style="stop-color:#1e293b"/><stop offset="100%" style="stop-color:#0f172a"/></linearGradient>
  </defs>
  <rect width="420" height="200" rx="8" fill="url(#panelBg)" stroke="#334155" stroke-width="1.2"/>
  <text x="12" y="22" fill="#94a3b8" font-size="10" font-weight="600">GENERATOR MAIN PANEL</text>
  <text x="12" y="36" fill="#64748b" font-size="9">380 V Ę 50 Hz Ę 13 kVA</text>
  <!-- Phase indicators R S T -->
  <circle cx="50" cy="58" r="10" fill="none" stroke="#ef4444" stroke-width="1.5"/>
  <text x="46" y="62" fill="#ef4444" font-size="9">R</text>
  <circle cx="80" cy="58" r="10" fill="none" stroke="#ef4444" stroke-width="1.5"/>
  <text x="76" y="62" fill="#ef4444" font-size="9">S</text>
  <circle cx="110" cy="58" r="10" fill="none" stroke="#ef4444" stroke-width="1.5"/>
  <text x="106" y="62" fill="#ef4444" font-size="9">T</text>
  <!-- Meters -->
  <rect x="20" y="78" width="52" height="36" rx="4" fill="#0f172a" stroke="#475569"/>
  <text x="28" y="92" fill="#94a3b8" font-size="8">A</text>
  <text x="32" y="106" fill="#38bdf8" font-size="11">30</text>
  <rect x="78" y="78" width="52" height="36" rx="4" fill="#0f172a" stroke="#475569"/>
  <text x="84" y="92" fill="#94a3b8" font-size="8">V</text>
  <text x="88" y="106" fill="#38bdf8" font-size="11">450</text>
  <rect x="136" y="78" width="52" height="36" rx="4" fill="#0f172a" stroke="#475569"/>
  <text x="140" y="92" fill="#94a3b8" font-size="8">Hz</text>
  <text x="148" y="106" fill="#38bdf8" font-size="11">50</text>
  <rect x="194" y="78" width="52" height="36" rx="4" fill="#0f172a" stroke="#475569"/>
  <text x="198" y="92" fill="#94a3b8" font-size="8">kW</text>
  <text x="206" y="106" fill="#38bdf8" font-size="11">15</text>
  <rect x="252" y="78" width="60" height="36" rx="4" fill="#0f172a" stroke="#475569"/>
  <text x="258" y="92" fill="#94a3b8" font-size="8">cos Ų</text>
  <text x="266" y="106" fill="#38bdf8" font-size="10">0.85</text>
  <!-- Engine control -->
  <rect x="20" y="128" width="70" height="56" rx="4" fill="#0f172a" stroke="#475569"/>
  <text x="28" y="142" fill="#94a3b8" font-size="8">ENGINE</text>
  <rect x="32" y="148" width="22" height="14" rx="3" fill="#166534" stroke="#22c55e"/>
  <text x="36" y="158" fill="#fff" font-size="8">START</text>
  <rect x="58" y="148" width="22" height="14" rx="3" fill="#991b1b" stroke="#ef4444"/>
  <text x="62" y="158" fill="#fff" font-size="8">STOP</text>
  <circle cx="45" cy="172" r="8" fill="#dc2626" stroke="#f87171"/>
  <text x="42" y="175" fill="#fff" font-size="7">E-STOP</text>
  <!-- Main breaker -->
  <rect x="108" y="128" width="80" height="56" rx="4" fill="#0f172a" stroke="#475569"/>
  <text x="118" y="142" fill="#94a3b8" font-size="8">MAIN BREAKER</text>
  <rect x="124" y="152" width="48" height="22" rx="2" fill="#334155" stroke="#64748b"/>
  <text x="132" y="166" fill="#94a3b8" font-size="9">ACB</text>
  <!-- Voltage reg -->
  <text x="200" y="142" fill="#94a3b8" font-size="8">VOLT. REG.</text>
  <text x="200" y="158" fill="#64748b" font-size="8">╝ DEC  ▓ INC</text>
  <text x="200" y="178" fill="#64748b" font-size="8">BREAKER TRIP</text>
</svg>
