<svg xmlns="http://www.w3.org/2000/svg" viewBox="0 0 340 100" role="img" aria-label="Sensör alarm paneli sinyal ak1_1">
  <defs><marker id="ar" markerWidth="6" markerHeight="6" refX="5" refY="3" orient="auto"><path d="M0,0 L6,3 L0,6 z" fill="#38bdf8"/></marker></defs>
  <rect x="8" y="8" width="324" height="84" rx="6" fill="#0f172a" stroke="#334155"/>
  <text x="20" y="26" fill="#94a3b8" font-size="10">Sensör ’ Transmitter ’ Alarm kontrol ’ Ç1k1_</text>
  <rect x="20" y="38" width="62" height="44" rx="4" fill="#1e293b" stroke="#475569"/>
  <text x="28" y="54" fill="#38bdf8" font-size="8">PT100</text>
  <text x="28" y="68" fill="#64748b" font-size="7">S1cakl1k</text>
  <rect x="92" y="38" width="62" height="44" rx="4" fill="#1e293b" stroke="#475569"/>
  <text x="98" y="54" fill="#38bdf8" font-size="8">420 mA</text>
  <text x="98" y="68" fill="#64748b" font-size="7">Bas1nç</text>
  <rect x="164" y="38" width="62" height="44" rx="4" fill="#1e293b" stroke="#475569"/>
  <text x="170" y="54" fill="#38bdf8" font-size="8">PNP RPM</text>
  <text x="170" y="68" fill="#64748b" font-size="7">Devir</text>
  <rect x="236" y="38" width="62" height="44" rx="4" fill="#1e293b" stroke="#475569"/>
  <text x="242" y="54" fill="#38bdf8" font-size="8">Switch</text>
  <text x="242" y="68" fill="#64748b" font-size="7">Seviye/Bas1nç</text>
  <line x1="82" y1="60" x2="92" y2="60" stroke="#38bdf8" stroke-width="1.5" marker-end="url(#ar)"/>
  <line x1="154" y1="60" x2="164" y2="60" stroke="#38bdf8" stroke-width="1.5" marker-end="url(#ar)"/>
  <line x1="226" y1="60" x2="236" y2="60" stroke="#38bdf8" stroke-width="1.5" marker-end="url(#ar)"/>
  <rect x="308" y="38" width="24" height="44" rx="4" fill="#1e293b" stroke="#475569"/>
  <text x="312" y="62" fill="#f97316" font-size="8">’</text>
  <text x="308" y="78" fill="#64748b" font-size="6">Alarm</text>
</svg>
